HIERARCHY
ROOT Hips
{
	OFFSET 51.666302 14.127090 55.696003
	CHANNELS 6 Xposition Yposition Zposition Xrotation Yrotation Zrotation
	JOINT spine
	{
		OFFSET 0.000000 -0.458068 7.965679
		CHANNELS 3 Xrotation Yrotation Zrotation
		JOINT spine1
		{
			OFFSET 0.000000 -0.000002 10.243095
			CHANNELS 3 Xrotation Yrotation Zrotation
			JOINT spine2
			{
				OFFSET 0.000000 -0.000001 9.814751
				CHANNELS 3 Xrotation Yrotation Zrotation
				JOINT Neck
				{
					OFFSET 0.000000 -1.201385 25.198601
					CHANNELS 3 Xrotation Yrotation Zrotation
					JOINT Head
					{
						OFFSET 0.000000 -0.000001 7.613152
						CHANNELS 3 Xrotation Yrotation Zrotation
						End Site
						{
							OFFSET 0.000000 6.077326 18.428101
						}
					}
				}
				JOINT RightShoulder
				{
					OFFSET -4.132702 0.575449 10.599197
					CHANNELS 3 Xrotation Yrotation Zrotation
					JOINT RightArm
					{
						OFFSET 0.000000 -0.000002 13.901802
						CHANNELS 3 Xrotation Yrotation Zrotation
						JOINT RightArmRoll
						{
							OFFSET 0.000000 -0.000002 7.017883
							CHANNELS 3 Xrotation Yrotation Zrotation
							JOINT RightForeArm
							{
								OFFSET 0.000000 -0.000003 20.440605
								CHANNELS 3 Xrotation Yrotation Zrotation
								JOINT RightForeArmRoll
								{
									OFFSET 0.000000 -0.000002 7.875153
									CHANNELS 3 Xrotation Yrotation Zrotation
									JOINT RightHand
									{
										OFFSET 0.000000 -0.000002 15.803696
										CHANNELS 3 Xrotation Yrotation Zrotation
										End Site
										{
											OFFSET 0.000000 0.000000 0.100006
										}
									}
								}
							}
						}
					}
				}
				JOINT LeftShoulder
				{
					OFFSET 4.132702 0.575449 10.599197
					CHANNELS 3 Xrotation Yrotation Zrotation
					JOINT LeftArm
					{
						OFFSET 0.000000 -0.000002 13.901802
						CHANNELS 3 Xrotation Yrotation Zrotation
						JOINT LeftArmRoll
						{
							OFFSET 0.000000 -0.000002 7.017883
							CHANNELS 3 Xrotation Yrotation Zrotation
							JOINT LeftForeArm
							{
								OFFSET 0.000000 -0.000003 20.440605
								CHANNELS 3 Xrotation Yrotation Zrotation
								JOINT LeftForeArmRoll
								{
									OFFSET 0.000000 -0.000002 7.875153
									CHANNELS 3 Xrotation Yrotation Zrotation
									JOINT LeftHand
									{
										OFFSET 0.000000 -0.000002 15.803696
										CHANNELS 3 Xrotation Yrotation Zrotation
										End Site
										{
											OFFSET 0.000000 0.000000 0.100006
										}
									}
								}
							}
						}
					}
				}
			}
		}
	}
	JOINT RightUpLeg
	{
		OFFSET -7.060482 1.086101 -1.294701
		CHANNELS 3 Xrotation Yrotation Zrotation
		JOINT RightUpLegRoll
		{
			OFFSET 0.000000 -0.000003 18.530796
			CHANNELS 3 Xrotation Yrotation Zrotation
			JOINT RightLeg
			{
				OFFSET 0.000000 0.000003 -22.947598
				CHANNELS 3 Xrotation Yrotation Zrotation
				JOINT RightLegRoll
				{
					OFFSET 0.000000 -0.000003 23.022594
					CHANNELS 3 Xrotation Yrotation Zrotation
					JOINT RightFoot
					{
						OFFSET 0.000000 -0.000004 19.162498
						CHANNELS 3 Xrotation Yrotation Zrotation
						JOINT RightToeBase
						{
							OFFSET 0.000000 -0.000002 16.018799
							CHANNELS 3 Xrotation Yrotation Zrotation
							End Site
							{
								OFFSET 0.006790 0.894203 7.757820
							}
						}
					}
				}
			}
		}
	}
	JOINT LeftUpLeg
	{
		OFFSET 7.060482 1.086101 -1.294701
		CHANNELS 3 Xrotation Yrotation Zrotation
		JOINT LeftUpLegRoll
		{
			OFFSET 0.000000 -0.000003 18.530895
			CHANNELS 3 Xrotation Yrotation Zrotation
			JOINT LeftLeg
			{
				OFFSET 0.000000 -0.000004 22.947502
				CHANNELS 3 Xrotation Yrotation Zrotation
				JOINT LeftLegRoll
				{
					OFFSET 0.000000 -0.000004 23.235504
					CHANNELS 3 Xrotation Yrotation Zrotation
					JOINT LeftFoot
					{
						OFFSET 0.000000 -0.000004 18.949600
						CHANNELS 3 Xrotation Yrotation Zrotation
						JOINT LeftToeBase
						{
							OFFSET 0.000000 -0.000002 16.018799
							CHANNELS 3 Xrotation Yrotation Zrotation
							End Site
							{
								OFFSET -0.030430 0.894203 7.757828
							}
						}
					}
				}
			}
		}
	}
}
MOTION
Frames: 6
Frame Time: 0.041667
52.581497 9.241758 58.960899 12.578680 -3.367903 7.632415 3.307683 1.037439 -0.222798 10.624720 2.056008 -0.514931 12.270171 2.049696 -0.539536 35.474537 -8.909359 -1.076482 8.965205 4.650806 -3.323833 -4.562758 -66.494255 -6.084994 -74.600378 -113.786478 -102.428508 -0.000002 0.000003 0.000003 77.000923 -5.665898 -0.690922 -0.000002 -0.000011 -3.005939 -5.000184 -7.999610 0.000071 4.187233 51.563055 -6.017401 -70.136002 123.456994 107.928921 0.000003 0.000010 0.000001 78.366517 9.737644 -0.952040 -0.000000 -0.000000 3.006550 -5.000210 7.998885 -0.000145 -96.549368 -172.645503 -3.491578 -179.999991 0.000005 -0.760004 100.482526 4.784302 -0.384136 -0.000004 0.000005 1.452450 63.168041 5.267924 6.127087 25.456959 -7.355625 0.000004 -94.298862 183.856384 -2.623891 -0.000004 -0.000004 -1.137700 -79.561418 -1.686821 1.797146 0.000002 -0.000000 -1.493250 62.974235 -5.628515 -5.317253 25.456955 7.355613 -0.000000 
52.586895 9.286499 58.924496 12.357177 -3.289011 7.641336 3.307953 1.020427 -0.220215 10.624994 2.022205 -0.508619 12.270512 2.015979 -0.532824 35.473076 -8.922708 -1.052785 8.916003 4.707397 -3.309933 -4.507898 -66.544545 -6.027433 -74.576773 -113.946550 -102.241477 -0.000003 0.000004 0.000001 76.786954 -5.796627 -0.574829 -0.000003 -0.000012 -3.005940 -5.000183 -7.999611 0.000072 4.230194 51.650369 -6.055291 -70.212159 123.536976 107.853188 0.000001 0.000011 -0.000003 78.201998 9.860569 -1.067281 -0.000002 -0.000000 3.006549 -5.000215 7.998881 -0.000146 -96.341792 -172.668944 -3.423387 -179.999991 0.000005 -0.764006 100.457664 4.782091 -0.389879 -0.000005 0.000004 1.451330 63.175965 5.258798 6.147721 25.456957 -7.355624 0.000005 -94.136133 183.831181 -2.554303 -0.000004 -0.000004 -1.137800 -79.562203 -1.728648 1.759985 0.000002 -0.000000 -1.493200 62.946245 -5.621889 -5.331611 25.456957 7.355613 0.000001 
52.586796 9.333019 58.907600 12.137270 -3.212966 7.650952 3.308121 1.003754 -0.217449 10.625177 1.989119 -0.501969 12.270659 1.982968 -0.525774 35.470849 -8.936470 -1.030829 8.866792 4.762931 -3.297578 -4.457626 -66.593484 -5.974926 -74.551324 -114.108371 -102.049310 -0.000000 0.000003 0.000001 76.567930 -5.928782 -0.458172 -0.000003 -0.000013 -3.005942 -5.000181 -7.999611 0.000073 4.275952 51.740664 -6.095988 -70.289040 123.618405 107.776307 -0.000000 0.000010 -0.000000 78.033525 9.984307 -1.183130 -0.000003 -0.000002 3.006549 -5.000212 7.998884 -0.000146 -96.135070 -172.690938 -3.357225 -179.999991 0.000005 -0.767995 100.434585 4.779555 -0.395684 -0.000004 0.000005 1.450220 63.184837 5.249791 6.168238 25.456955 -7.355622 0.000004 -93.972864 183.807234 -2.485797 -0.000005 -0.000004 -1.137920 -79.561622 -1.769168 1.723636 0.000003 -0.000000 -1.493110 62.919286 -5.615238 -5.346103 25.456957 7.355613 0.000001 
52.573296 9.377649 58.897301 11.919478 -3.141731 7.661200 3.308153 0.987804 -0.214518 10.625076 1.957471 -0.495032 12.270531 1.951404 -0.518459 35.467953 -8.950637 -1.011040 8.817679 4.816925 -3.287028 -4.413616 -66.641015 -5.929366 -74.524802 -114.270397 -101.854438 -0.000002 0.000003 0.000003 76.344849 -6.061143 -0.341878 -0.000004 -0.000013 -3.005940 -5.000183 -7.999611 0.000071 4.324678 51.833749 -6.139723 -70.365524 123.701952 107.697016 0.000001 0.000010 -0.000001 77.860236 10.108807 -1.299384 -0.000003 -0.000000 3.006551 -5.000206 7.998881 -0.000147 -95.930594 -172.710841 -3.294790 -179.999991 0.000005 -0.771001 100.413049 4.777249 -0.401561 -0.000005 0.000005 1.449160 63.194679 5.241031 6.188172 25.456959 -7.355624 0.000003 -93.809739 183.785487 -2.419344 -0.000005 -0.000004 -1.138120 -79.559840 -1.807721 1.688657 0.000003 0.000000 -1.493010 62.893782 -5.608664 -5.360341 25.456957 7.355614 -0.000000 
52.565796 9.406050 58.899700 11.704412 -3.077247 7.672001 3.308018 0.972918 -0.211436 10.624582 1.927958 -0.487865 12.270106 1.921984 -0.510942 35.464046 -8.965660 -0.993574 8.768746 4.868900 -3.278529 -4.377574 -66.686921 -5.892681 -74.497577 -114.430599 -101.659402 -0.000002 0.000003 0.000002 76.119064 -6.192305 -0.226814 -0.000003 -0.000015 -3.005942 -5.000180 -7.999615 0.000072 4.376592 51.929498 -6.186768 -70.440308 123.788163 107.613817 -0.000001 0.000010 0.000002 77.681326 10.233993 -1.416167 -0.000004 0.000001 3.006552 -5.000217 7.998884 -0.000147 -95.729780 -172.728094 -3.237799 -179.999991 0.000005 -0.775003 100.393064 4.775403 -0.406549 -0.000004 0.000005 1.448210 63.205601 5.232596 6.207428 25.456955 -7.355623 0.000004 -93.647221 183.766567 -2.357362 -0.000005 -0.000004 -1.138450 -79.557313 -1.843602 1.655587 0.000002 0.000000 -1.492930 62.870238 -5.602221 -5.374402 25.456959 7.355614 0.000001 
52.561695 9.450879 58.864208 11.492692 -3.021449 7.683241 3.307694 0.959463 -0.208225 10.623716 1.901317 -0.480532 12.269214 1.895430 -0.503288 35.459105 -8.981538 -0.978856 8.720099 4.918380 -3.272353 -4.351190 -66.731037 -5.866724 -74.470242 -114.587222 -101.466469 -0.000000 0.000003 0.000002 75.891687 -6.320893 -0.113858 -0.000002 -0.000014 -3.005941 -5.000181 -7.999610 0.000073 4.431901 52.027801 -6.237403 -70.513548 123.877201 107.527333 0.000001 0.000009 0.000002 77.496057 10.359788 -1.533688 -0.000005 -0.000002 3.006549 -5.000212 7.998885 -0.000146 -95.534150 -172.741864 -3.187874 -179.999991 0.000005 -0.777995 100.374302 4.774734 -0.408705 -0.000005 0.000005 1.447390 63.217704 5.224509 6.226015 25.456952 -7.355622 0.000003 -93.485967 183.751350 -2.300992 -0.000005 -0.000004 -1.138960 -79.554205 -1.876164 1.625015 0.000003 -0.000000 -1.492890 62.849201 -5.595948 -5.387971 25.456957 7.355613 0.000000 
